<?xml version="1.0" standalone="no"?>
<!DOCTYPE svg PUBLIC "-//W3C//DTD SVG 20010904//EN"
 "http://www.w3.org/TR/2001/REC-SVG-20010904/DTD/svg10.dtd">
<svg version="1.0" xmlns="http://www.w3.org/2000/svg"
 width="670.000000pt" height="746.000000pt" viewBox="0 0 670.000000 746.000000"
 preserveAspectRatio="xMidYMid meet">

<g transform="translate(0.000000,746.000000) scale(0.100000,-0.100000)"
fill="#000000" stroke="none">
<path d="M3130 7450 c-124 -18 -312 -99 -429 -185 -59 -44 -148 -146 -191
-220 -43 -76 -100 -262 -111 -369 -18 -157 6 -515 50 -756 10 -58 25 -143 31
-190 8 -53 23 -106 41 -140 31 -62 85 -128 95 -117 4 3 -10 50 -30 104 -66
178 -100 409 -77 528 6 33 16 137 21 230 11 193 16 215 97 415 51 126 65 152
115 205 108 117 201 136 372 77 121 -42 198 -97 271 -197 16 -22 32 -42 35
-45 3 -3 19 -27 34 -55 16 -27 35 -57 42 -65 32 -38 156 -300 206 -435 87
-235 95 -274 102 -480 4 -149 9 -197 31 -280 14 -55 28 -106 31 -114 11 -33
22 10 27 109 4 95 8 112 39 175 56 111 81 221 82 355 1 158 -31 667 -49 765
-8 46 -11 104 -8 137 10 94 -10 130 -135 245 -59 54 -125 114 -146 134 -64 60
-140 100 -256 135 -122 37 -206 47 -290 34z"/>
<path d="M3825 5194 c-114 -90 -147 -125 -322 -341 -64 -80 -169 -170 -285
-248 l-58 -38 -57 24 c-100 41 -153 108 -199 252 -10 31 -20 57 -24 57 -3 0
-14 -23 -24 -51 -10 -27 -39 -74 -63 -102 -62 -73 -83 -117 -76 -160 5 -32 2
-37 -24 -50 -16 -9 -35 -23 -42 -31 -9 -10 -30 -16 -56 -16 -26 0 -51 -7 -66
-19 -13 -10 -76 -40 -139 -66 -156 -64 -335 -160 -387 -208 -45 -42 -93 -117
-112 -179 -8 -25 -31 -53 -69 -85 -132 -112 -192 -188 -192 -243 0 -11 -21
-62 -46 -113 -35 -69 -61 -106 -105 -148 -62 -57 -64 -63 -68 -161 -1 -23 -5
-28 -28 -28 -14 0 -41 -11 -59 -25 -18 -14 -37 -25 -43 -25 -5 0 -18 -11 -28
-23 -10 -13 -28 -29 -40 -35 -43 -23 -102 -85 -117 -123 -9 -21 -19 -39 -22
-39 -3 0 -21 7 -40 16 -38 18 -82 70 -139 164 -21 36 -45 71 -52 78 -19 20
-16 36 13 63 38 36 70 96 88 165 19 74 21 235 4 299 -13 48 1 150 37 279 12
43 15 76 10 120 -12 102 -39 136 -110 136 -46 0 -118 -63 -133 -118 -6 -20
-20 -63 -31 -94 -12 -32 -21 -80 -21 -107 0 -33 -6 -56 -19 -72 -17 -22 -25
-23 -140 -24 l-122 0 -51 -53 c-28 -30 -79 -71 -114 -93 -56 -36 -65 -47 -83
-95 -12 -30 -21 -57 -21 -61 0 -3 -14 -21 -30 -40 -22 -24 -30 -44 -30 -70 0
-37 -35 -123 -50 -123 -10 0 -30 -56 -30 -86 0 -31 43 -127 69 -156 12 -12 21
-25 21 -30 0 -17 78 -56 125 -63 66 -9 95 -41 168 -186 31 -63 57 -117 57
-121 0 -4 13 -35 28 -70 16 -35 35 -79 42 -98 8 -19 27 -57 42 -83 15 -26 28
-52 28 -56 0 -5 11 -19 25 -32 13 -13 25 -27 25 -31 0 -9 23 -39 70 -88 19
-21 44 -49 55 -63 34 -42 117 -105 174 -133 71 -33 217 -51 276 -34 138 42
170 55 216 92 28 22 66 46 85 54 20 8 43 27 51 43 15 26 20 27 65 23 65 -6 98
15 98 63 0 35 20 49 36 24 3 -6 18 -9 33 -6 14 3 34 1 43 -4 42 -23 88 17 88
76 0 19 5 25 23 25 35 0 49 15 56 56 11 70 28 50 35 -43 14 -176 36 -305 66
-391 30 -86 30 -89 33 -322 l3 -235 -56 -60 c-101 -107 -142 -180 -203 -365
-20 -58 -49 -134 -65 -170 -17 -36 -47 -115 -68 -175 -34 -101 -37 -119 -38
-225 -1 -99 2 -120 20 -155 29 -54 50 -71 125 -101 35 -14 77 -35 92 -46 30
-22 30 -18 10 -135 l-5 -33 1504 0 1504 0 18 57 c10 31 31 69 46 85 40 40 43
56 20 130 -14 47 -17 73 -11 95 5 16 7 42 4 56 -4 18 5 39 28 73 49 71 67 131
84 272 8 71 39 310 69 533 45 331 80 599 110 834 19 150 39 296 51 375 8 52
22 155 31 228 l17 133 29 -36 c16 -19 35 -35 42 -35 7 0 29 -16 49 -35 20 -19
45 -35 56 -35 12 0 56 -34 103 -78 123 -116 257 -199 387 -241 113 -37 408
-28 491 14 34 18 54 41 84 101 25 50 26 59 26 224 0 187 -4 211 -68 410 l-37
115 -96 96 c-55 55 -101 111 -108 130 -15 44 -64 118 -100 153 -17 16 -67 54
-112 85 -59 40 -85 65 -92 86 -12 38 -48 76 -114 122 -39 26 -59 50 -74 82
-11 25 -28 55 -38 66 -10 11 -21 40 -25 63 -9 63 -39 115 -91 159 -25 21 -73
79 -107 128 -86 127 -179 244 -230 292 -34 30 -61 44 -113 58 -39 10 -90 30
-115 45 -82 49 -195 81 -320 91 -108 8 -249 25 -296 34 -18 4 -94 113 -94 135
0 9 -25 16 -95 26 -30 4 -65 18 -90 36 -36 27 -45 29 -85 23 -25 -4 -65 -8
-90 -8 -32 -1 -50 -7 -61 -21 -23 -28 -53 -12 -81 44 -33 64 -56 63 -143 -6z
m344 -429 c19 -10 40 -37 63 -87 49 -101 84 -149 174 -240 55 -55 85 -78 102
-78 86 0 238 -79 305 -160 13 -15 46 -38 73 -50 53 -24 110 -62 161 -107 18
-15 61 -39 95 -52 107 -41 259 -120 351 -185 168 -118 342 -202 559 -272 79
-25 162 -53 186 -61 49 -18 146 -92 189 -144 15 -19 35 -42 43 -51 28 -31 98
-172 133 -268 50 -137 62 -192 62 -305 0 -83 -4 -107 -22 -141 -31 -58 -92
-119 -133 -133 -56 -19 -247 -26 -326 -12 -134 24 -324 133 -467 268 -62 59
-73 73 -162 213 -67 105 -178 239 -287 348 l-94 92 -115 3 c-107 3 -120 5
-178 35 -71 36 -133 42 -170 16 -12 -9 -45 -22 -73 -30 -93 -24 -180 13 -223
97 -14 26 -20 29 -66 29 -46 0 -55 4 -90 38 -27 28 -40 51 -45 80 -6 37 -10
42 -33 42 -34 0 -67 23 -87 62 -12 24 -14 46 -9 94 5 51 4 64 -7 64 -20 0 -87
69 -94 96 -3 13 1 45 10 72 22 66 79 119 212 198 16 9 13 16 -34 72 -94 114
-126 187 -138 318 -7 79 6 112 55 139 33 18 46 18 80 0z m-981 -241 c27 -18
31 -78 6 -88 -66 -25 -112 36 -64 84 24 24 29 24 58 4z m6 -226 c13 -21 -2
-66 -26 -82 -39 -24 -74 36 -48 84 14 25 57 24 74 -2z m-2267 -53 c39 -27 45
-110 15 -230 -23 -95 -34 -184 -28 -230 4 -28 9 -112 12 -187 5 -125 4 -140
-14 -165 -11 -16 -31 -51 -45 -79 -14 -27 -33 -56 -41 -63 -27 -23 -18 -51 51
-159 71 -112 153 -202 182 -202 22 0 121 -104 163 -170 50 -79 72 -170 72
-305 1 -208 -52 -320 -172 -365 -75 -29 -129 -22 -218 27 -96 52 -252 212
-284 291 -13 32 -31 68 -40 82 -28 41 -98 192 -111 240 -7 25 -24 63 -38 85
-14 22 -39 69 -57 105 -33 69 -32 69 -190 135 -60 25 -134 126 -142 193 -4 39
-1 47 29 78 29 30 34 43 40 105 6 64 9 73 43 103 24 23 36 42 36 61 0 38 55
104 105 125 23 10 65 43 95 74 l53 56 121 0 c162 1 169 6 174 122 2 46 10 90
16 98 7 8 21 38 31 65 19 51 82 125 107 125 7 0 23 -7 35 -15z m2207 -171 c33
-32 7 -94 -39 -94 -32 0 -49 24 -40 57 11 47 51 66 79 37z"/>
<path d="M3135 4490 c-9 -15 4 -30 26 -30 12 0 19 7 19 20 0 21 -33 29 -45 10z"/>
<path d="M3137 4283 c-14 -13 -6 -33 13 -33 11 0 20 4 20 9 0 13 -26 32 -33
24z"/>
<path d="M3096 4043 c-12 -12 -6 -33 9 -33 8 0 15 6 15 14 0 17 -14 28 -24 19z"/>
</g>
</svg>
